<?xml version="1.0" encoding="utf-8"?>
<!-- Generator: Adobe Illustrator 19.2.1, SVG Export Plug-In . SVG Version: 6.00 Build 0)  -->
<svg version="1.1" id="layer" xmlns="http://www.w3.org/2000/svg" xmlns:xlink="http://www.w3.org/1999/xlink" x="0px" y="0px"
	 viewBox="0 0 652 652" style="enable-background:new 0 0 652 652;" xml:space="preserve">
<path d="M587.4,367.5L565.8,339h0.4c30.1,0,54.6-24.3,54.6-54.4c0-30.1-24.4-54.5-54.6-54.5H512c-21.5,0-45.8,10.9-56.3,41.8
	l-29.3,87.9c-4.9,12.3-12.2,15.8-19.1,15.8h-9.2c-6.1,0-11.2-2.5-14.7-7L361.3,339h0.4c30.1,0,54.5-24.3,54.6-54.4
	c0-30.1-24.4-54.5-54.5-54.5h-54.3c-21.5,0-45.8,10.9-56.3,41.8l-29.3,87.9c-4.8,12.3-12.2,15.8-19,15.8H75.4
	c-10.2,0-18.5-8-18.5-18.2c0-2,0.3-3.8,0.9-5.6l23.1-69.5c2.7-8.3,9.3-15.5,19.2-15.8h57.1c10.2,0,18.2,8,18.2,18.2
	c0,10.2-8,18.2-18.2,18.2h-45.5l-12,36.4h57.4c30.1,0,54.5-24.5,54.5-54.5c0-30.1-24.4-54.5-54.5-54.5h-54.5
	c-21.5,0-45.8,10.9-56.3,41.8l-22.9,68.7c-1.7,5.4-2.7,11-2.6,16.8c0,29.9,24.6,54.2,54.5,54.5h0.1h127.3c19.9,0,43-10.9,53.6-41.7
	l29.3-87.9c2.7-8.3,9.3-15.5,19.2-15.8h56.9c10.2,0,18.1,8,18.2,18.2c0,10.2-8,18.2-18.2,18.2h-36.3c-6.8,0-13.2,4-16.3,10.1
	c-3.1,6.1-2.4,13.4,1.7,18.9l43.7,58.2c0,0.1,0.1,0.1,0.1,0.2c9.9,13.2,25.7,21.8,43.5,21.8h9.2c19.9,0,43-10.9,53.6-41.7l29.3-87.9
	c2.7-8.3,9.3-15.5,19.2-15.8h56.9c10.2,0,18.2,8,18.2,18.2c0,10.2-8,18.2-18.2,18.2h-36.3c-6.8,0-13.3,4-16.3,10.1
	c-3.1,6.1-2.4,13.4,1.7,18.9c0,0,43.3,57.8,43.4,57.8c10.4,14.1,21.2,20.3,35.1,22.3l11.3-34.8C598.4,375.8,591.5,372.8,587.4,367.5
	z"/>
</svg>
