<svg width="119" height="23" viewBox="0 0 119 23" fill="none" xmlns="http://www.w3.org/2000/svg">
<g clip-path="url(#clip0_1284_68)">
<path d="M79.61 8.6598H83.89V17.1998H86.94V8.6598H91.22V6.1398H79.61V8.6598ZM96.4 12.8398H103.29V10.3398H96.4V8.5398H103.51V6.1398H93.38V17.1998H103.6V14.7598H96.4V12.8398ZM118.27 15.8898V14.7398C118.27 13.1198 117.36 12.2098 115.86 11.8698C117.24 11.5598 118.2 10.6198 118.2 9.2398V9.0998C118.2 7.8998 117.72 6.1398 113.51 6.1398H106.06V17.1998H109.12V13.4398H113.11C114.66 13.4398 115.18 14.0898 115.18 15.5198V16.4298C115.18 16.9198 115.24 17.1298 115.28 17.1998H118.45V17.1298C118.35 16.9498 118.27 16.7198 118.27 15.8898ZM114.98 9.7498C114.98 10.3898 114.64 10.9198 113.39 10.9198H109.12V8.5698H113.39C114.64 8.5698 114.98 9.0798 114.98 9.7198V9.7498ZM39.42 11.9698C39.42 13.3798 38.9 14.6798 36.95 14.6798H36.9C35.01 14.6798 34.7 13.1498 34.65 12.3698H31.48V12.4598C31.48 14.2598 32.39 17.2898 36.69 17.2898H37.18C41.72 17.2898 42.49 13.9698 42.49 11.9698V6.0498H39.43V11.9698H39.42ZM54.46 11.5998C54.46 12.8598 54.13 14.6798 51.32 14.6798H51.25C48.44 14.6798 48.08 12.8698 48.08 11.5998V6.0498H45.02V11.6698C45.02 13.8698 45.64 17.2798 51.07 17.2798H51.5C56.74 17.2798 57.51 13.8898 57.51 11.6698V6.0498H54.46V11.5998ZM67.75 6.1398H60.25V17.1998H63.31V13.6598H67.74C71.19 13.6598 72.32 12.0698 72.32 9.9698V9.8098C72.33 7.6698 71.24 6.1398 67.75 6.1398ZM69.14 9.9298C69.14 10.7198 68.65 11.1898 67.52 11.1898H63.31V8.5998H67.52C68.65 8.5998 69.14 9.0898 69.14 9.8598V9.9298ZM74.52 17.1998H77.58V6.1398H74.52V17.1998Z" fill="white"/>
<path d="M25.3449 1.75343C25.1442 0.741605 24.2243 0.0354824 23.195 0.103105C22.5687 0.142832 21.9536 0.18613 21.3497 0.233C13.8097 0.812667 7.93206 1.89728 3.67289 2.94978L3.67234 2.94766V6.59351C8.32541 5.44785 13.3022 4.42518 21.3943 3.78842C21.7003 3.76488 21.9715 3.98397 22.0129 4.28804C22.1988 5.64681 22.4205 7.9315 22.4205 11.0984C22.4205 14.2654 22.1988 16.5498 22.0129 17.9086C21.9713 18.2125 21.7002 18.4317 21.3943 18.4085C13.678 17.8238 7.92593 16.6601 4.45945 15.7869L4.45757 15.7863C4.24266 15.7202 4.07948 15.5442 4.02973 15.325C3.78944 13.929 3.66987 12.5149 3.67234 11.0984H0C0 13.9144 0.386533 16.0906 0.682083 17.3429C0.853042 18.0759 1.41289 18.6555 2.13941 18.8519C6.78823 20.102 13.7863 21.4979 23.2109 22.0946C24.2339 22.1584 25.146 21.4546 25.3438 20.4489C25.6815 18.739 26.0926 15.7104 26.0926 11.0984C26.0926 6.4913 25.6824 3.4643 25.3449 1.75343Z" fill="#FFD300"/>
<path d="M20.9939 11.0991L12.5635 15.8686V6.32959L20.9939 11.0991Z" fill="#FFD300"/>
<path d="M25.3449 1.75343C25.1442 0.741605 24.2243 0.0354824 23.195 0.103105C22.5687 0.142832 21.9536 0.18613 21.3497 0.233V0.232851C13.8097 0.812518 7.93206 1.89728 3.67289 2.94978L3.67234 2.94766V6.59351C8.32541 5.44785 13.3022 4.42518 21.3943 3.78842C21.7003 3.76488 21.9715 3.98397 22.0129 4.28804L22.0129 4.28832C22.1988 5.64709 22.4205 7.9315 22.4205 11.0984C22.4205 14.2654 22.1988 16.5498 22.0129 17.9086L22.0129 17.9089C21.9712 18.2128 21.7002 18.4317 21.3943 18.4085C13.678 17.8238 7.92593 16.6601 4.45945 15.7869L4.45757 15.7863C4.24266 15.7202 4.07948 15.5442 4.02973 15.325C3.78944 13.929 3.66987 12.5149 3.67234 11.0984H0C0 13.9144 0.386533 16.0906 0.682083 17.3429C0.853042 18.0759 1.41289 18.6555 2.13941 18.8519C6.78823 20.102 13.7863 21.4979 23.2109 22.0946C24.2339 22.1584 25.146 21.4546 25.3438 20.4489C25.6815 18.739 26.0926 15.7104 26.0926 11.0984C26.0926 6.4913 25.6824 3.4643 25.3449 1.75343Z" fill="#FFD300"/>
<mask id="mask0_1284_68" style="mask-type:luminance" maskUnits="userSpaceOnUse" x="0" y="0" width="27" height="23">
<path d="M25.3449 1.75343C25.1442 0.741605 24.2243 0.0354824 23.195 0.103105C22.5687 0.142832 21.9536 0.18613 21.3497 0.233V0.232851C13.8097 0.812518 7.93206 1.89728 3.67289 2.94978L3.67234 2.94766V6.59351C8.32541 5.44785 13.3022 4.42518 21.3943 3.78842C21.7003 3.76488 21.9715 3.98397 22.0129 4.28804L22.0129 4.28832C22.1988 5.64709 22.4205 7.9315 22.4205 11.0984C22.4205 14.2654 22.1988 16.5498 22.0129 17.9086L22.0129 17.9089C21.9712 18.2128 21.7002 18.4317 21.3943 18.4085C13.678 17.8238 7.92593 16.6601 4.45945 15.7869L4.45757 15.7863C4.24266 15.7202 4.07948 15.5442 4.02973 15.325C3.78944 13.929 3.66987 12.5149 3.67234 11.0984H0C0 13.9144 0.386533 16.0906 0.682083 17.3429C0.853042 18.0759 1.41289 18.6555 2.13941 18.8519C6.78823 20.102 13.7863 21.4979 23.2109 22.0946C24.2339 22.1584 25.146 21.4546 25.3438 20.4489C25.6815 18.739 26.0926 15.7104 26.0926 11.0984C26.0926 6.4913 25.6824 3.4643 25.3449 1.75343Z" fill="#005EC2"/>
</mask>
<g mask="url(#mask0_1284_68)">
<path d="M26.5189 0.0986328H0V11.09H26.5189V0.0986328Z" fill="#005EC2"/>
</g>
<path d="M20.9939 11.0991L12.5635 15.8686V6.32959L20.9939 11.0991Z" fill="#FFD300"/>
<mask id="mask1_1284_68" style="mask-type:luminance" maskUnits="userSpaceOnUse" x="12" y="6" width="9" height="10">
<path d="M20.9939 11.0991L12.5635 15.8686V6.32959L20.9939 11.0991Z" fill="#005EC2"/>
</mask>
<g mask="url(#mask1_1284_68)">
<path d="M20.9359 5.85596H12.5615V11.09H20.9359V5.85596Z" fill="#005EC2"/>
</g>
</g>
<defs>
<clipPath id="clip0_1284_68">
<rect width="119" height="23" fill="white"/>
</clipPath>
</defs>
</svg>
