<?xml version="1.0" encoding="UTF-8"?>
<svg width="119px" height="23px" viewBox="0 0 119 23" version="1.1" xmlns="http://www.w3.org/2000/svg" xmlns:xlink="http://www.w3.org/1999/xlink">
    <title>jupiter_logo-full_ua@1x</title>
    <defs>
        <path d="M25.3449219,1.65479647 C25.144217,0.64297262 24.2243408,-0.0631504251 23.195022,0.0044723531 C22.5687243,0.0441987311 21.9536029,0.0874971202 21.3496576,0.13436752 L21.3496576,0.134218633 C13.8096735,0.713885531 7.93205792,1.79865098 3.67289276,2.85114333 L3.6723372,2.84902779 L3.6723372,6.49487519 C8.32540673,5.34921296 13.3021906,4.32654261 21.3943084,3.6897878 C21.7002695,3.66624436 21.9715252,3.88533829 22.0128745,4.18940528 L22.01293,4.18969027 C22.1988142,5.54845818 22.4204787,7.83286602 22.4204787,10.9997263 C22.4204787,14.1667772 22.1988137,16.4511867 22.01293,17.8099546 L22.0128745,17.8102396 C21.9712383,18.1141449 21.7001712,18.3330858 21.3943079,18.309856 C13.6780145,17.7251958 7.92592685,16.5615076 4.45945371,15.6882501 L4.45756872,15.6876806 C4.24265851,15.6215669 4.07948374,15.4456152 4.0297285,15.2263395 C3.78944237,13.830346 3.66986965,12.4162465 3.67233665,10.9997263 L0,10.9997263 C0,13.8157459 0.386532747,15.9919456 0.682083377,17.2443099 C0.853042169,17.9772195 1.41289431,18.5569108 2.1394089,18.7532778 C6.78822845,20.0033365 13.7863176,21.3992547 23.2108636,21.9959981 C24.233893,22.0597187 25.145959,21.3559803 25.3438097,20.3502445 C25.6815356,18.6403775 26.0926243,15.6117789 26.0926243,10.9997263 C26.0926243,6.39266371 25.6824173,3.36566737 25.3449219,1.65479647 Z" id="path-1"></path>
        <polygon id="path-3" points="8.43038319 4.7695209 0 9.5390418 0 0"></polygon>
    </defs>
    <g id="Page-1" stroke="none" stroke-width="1" fill="none" fill-rule="evenodd">
        <g id="Group" transform="translate(0.000000, 0.098723)">
            <g id="jupiter_logo_valge" transform="translate(31.480000, 5.951277)" fill="#FFFFFF" fill-rule="nonzero">
                <path d="M48.13,2.61 L52.41,2.61 L52.41,11.15 L55.46,11.15 L55.46,2.61 L59.74,2.61 L59.74,0.09 L48.13,0.09 L48.13,2.61 Z M64.92,6.79 L71.81,6.79 L71.81,4.29 L64.92,4.29 L64.92,2.49 L72.03,2.49 L72.03,0.09 L61.9,0.09 L61.9,11.15 L72.12,11.15 L72.12,8.71 L64.92,8.71 L64.92,6.79 L64.92,6.79 Z M86.79,9.84 L86.79,8.69 C86.79,7.07 85.88,6.16 84.38,5.82 C85.76,5.51 86.72,4.57 86.72,3.19 L86.72,3.05 C86.72,1.85 86.24,0.09 82.03,0.09 L74.58,0.09 L74.58,11.15 L77.64,11.15 L77.64,7.39 L81.63,7.39 C83.18,7.39 83.7,8.04 83.7,9.47 L83.7,10.38 C83.7,10.87 83.76,11.08 83.8,11.15 L86.97,11.15 L86.97,11.08 C86.87,10.9 86.79,10.67 86.79,9.84 Z M83.5,3.7 C83.5,4.34 83.16,4.87 81.91,4.87 L77.64,4.87 L77.64,2.52 L81.91,2.52 C83.16,2.52 83.5,3.03 83.5,3.67 L83.5,3.7 Z M7.94,5.92 C7.94,7.33 7.42,8.63 5.47,8.63 L5.42,8.63 C3.53,8.63 3.22,7.1 3.17,6.32 L-7.10542736e-15,6.32 L-7.10542736e-15,6.41 C-7.10542736e-15,8.21 0.91,11.24 5.21,11.24 L5.7,11.24 C10.24,11.24 11.01,7.92 11.01,5.92 L11.01,2.66453526e-15 L7.95,2.66453526e-15 L7.95,5.92 L7.94,5.92 Z M22.98,5.55 C22.98,6.81 22.65,8.63 19.84,8.63 L19.77,8.63 C16.96,8.63 16.6,6.82 16.6,5.55 L16.6,2.66453526e-15 L13.54,2.66453526e-15 L13.54,5.62 C13.54,7.82 14.16,11.23 19.59,11.23 L20.02,11.23 C25.26,11.23 26.03,7.84 26.03,5.62 L26.03,2.66453526e-15 L22.98,2.66453526e-15 L22.98,5.55 L22.98,5.55 Z M36.27,0.09 L28.77,0.09 L28.77,11.15 L31.83,11.15 L31.83,7.61 L36.26,7.61 C39.71,7.61 40.8400681,6.02 40.8400681,3.92 L40.8400681,3.76 C40.85,1.62 39.76,0.09 36.27,0.09 Z M37.66,3.88 C37.66,4.67 37.17,5.14 36.04,5.14 L31.83,5.14 L31.83,2.55 L36.04,2.55 C37.17,2.55 37.66,3.04 37.66,3.81 L37.66,3.88 Z M43.04,11.15 L46.1,11.15 L46.1,0.09 L43.04,0.09 L43.04,11.15 Z" id="Shape"></path>
            </g>
            <g transform="translate(-0.000000, 0.000000)" id="jupiter_logo_UA">
                <g id="jupiter-elemendid-rgb-05" fill="#FFD300" fill-rule="nonzero">
                    <path d="M25.3449219,1.65479647 C25.144217,0.64297262 24.2243408,-0.0631504251 23.195022,0.0044723531 C22.5687243,0.0441987311 21.9536029,0.0874971202 21.3496576,0.13436752 L21.3496576,0.134218633 C13.8096735,0.713885531 7.93205792,1.79865098 3.67289276,2.85114333 L3.6723372,2.84902779 L3.6723372,6.49487519 C8.32540673,5.34921296 13.3021906,4.32654261 21.3943084,3.6897878 C21.7002695,3.66624436 21.9715252,3.88533829 22.0128745,4.18940528 L22.01293,4.18969027 C22.1988142,5.54845818 22.4204787,7.83286602 22.4204787,10.9997263 C22.4204787,14.1667772 22.1988137,16.4511867 22.01293,17.8099546 L22.0128745,17.8102396 C21.9712383,18.1141449 21.7001712,18.3330858 21.3943079,18.309856 C13.6780145,17.7251958 7.92592685,16.5615076 4.45945371,15.6882501 L4.45756872,15.6876806 C4.24265851,15.6215669 4.07948374,15.4456152 4.0297285,15.2263395 C3.78944237,13.830346 3.66986965,12.4162465 3.67233665,10.9997263 L0,10.9997263 C0,13.8157459 0.386532747,15.9919456 0.682083377,17.2443099 C0.853042169,17.9772195 1.41289431,18.5569108 2.1394089,18.7532778 C6.78822845,20.0033365 13.7863176,21.3992547 23.2108636,21.9959981 C24.233893,22.0597187 25.145959,21.3559803 25.3438097,20.3502445 C25.6815356,18.6403775 26.0926243,15.6117789 26.0926243,10.9997263 C26.0926243,6.39266371 25.6824173,3.36566737 25.3449219,1.65479647 Z" id="Path"></path>
                    <polygon id="Path" points="20.993903 11.0004669 12.5635198 15.7699878 12.5635198 6.230946"></polygon>
                </g>
                <g id="jupiter-elemendid-rgb-05-copy">
                    <g id="Rectangle-Copy">
                        <mask id="mask-2" fill="white">
                            <use xlink:href="#path-1"></use>
                        </mask>
                        <use id="Mask" fill="#FFD300" fill-rule="nonzero" xlink:href="#path-1"></use>
                        <rect fill="#005EC2" mask="url(#mask-2)" x="0" y="0" width="26.5189045" height="10.9913881"></rect>
                    </g>
                    <g id="Rectangle" transform="translate(12.563520, 6.230946)">
                        <mask id="mask-4" fill="white">
                            <use xlink:href="#path-3"></use>
                        </mask>
                        <use id="Mask" fill="#FFD300" fill-rule="nonzero" xlink:href="#path-3"></use>
                        <rect fill="#005EC2" mask="url(#mask-4)" x="-0.00193346548" y="-0.473552252" width="8.3743909" height="5.23399431"></rect>
                    </g>
                </g>
            </g>
        </g>
    </g>
</svg>